<svg xmlns="http://www.w3.org/2000/svg" width="390.855" height="101.622" viewBox="0 0 366.427 95.271"><g fill="#005b97"><path d="M0 37.253c.065-.25.171-.5.19-.753.589-8.08 3.386-15.298 8.616-21.49 4.299-5.092 9.778-8.397 16.225-10.074 2.428-.631 4.897-1.021 7.41-1.095.947-.028 1.893-.145 2.837-.123 3.283.08 6.558.332 9.758 1.093 2.759.656 5.487 1.446 8.222 2.196.89.244 1.766.491 2.682.153.253-.093.548-.135.746-.297.514-.413 1.065-.303 1.682-.272v16.934h-1.754c-.131-.49-.27-.998-.404-1.51-.826-3.174-2.069-6.15-4.105-8.763-2.422-3.107-5.58-5.085-9.342-6.142-2.935-.825-5.948-1.027-8.96-.778-6.524.539-12.057 3.181-16.4 8.139-3.3 3.767-5.38 8.176-6.64 12.994-.643 2.457-1.124 4.943-1.234 7.487-.079 1.826-.223 3.658-.149 5.479.218 5.435 1.35 10.66 3.941 15.496 2.688 5.014 6.54 8.868 11.639 11.418 2.465 1.232 5.081 1.998 7.834 2.335 3.067.375 6.07.073 9.065-.58 2.865-.623 5.57-1.66 8.176-2.98.15-.075.299-.158.441-.25.054-.033.089-.098.218-.245v-.91c0-4.68.025-9.363-.019-14.044a14.463 14.463 0 0 0-.416-3.208c-.575-2.378-2.42-3.905-4.956-4.115-1.685-.14-3.38-.153-5.072-.216-.4-.015-.801-.002-1.252-.002v-1.778h26.696c.185-.424.361-.819.533-1.216 1.757-4.048 4.31-7.433 8.142-9.741 2.148-1.294 4.469-2.034 6.97-2.32 2.319-.265 4.586-.103 6.848.4 3.715.828 6.386 3.005 8.113 6.355.792 1.533 1.492 3.113 2.244 4.667.191.395.358.834.651 1.143.697.73.822 1.585.737 2.523-.022.228-.004.458-.004.788H70.693c-.304 2.194-.613 4.276-.357 6.424.213 1.787.508 3.543 1.092 5.245.87 2.536 2.192 4.82 4.078 6.723 3.114 3.142 6.872 4.79 11.349 4.414 3.124-.262 5.9-1.459 8.245-3.561 1.083-.971 2.109-2.005 3.234-3.08l.949 1.05c-3.023 3.9-6.438 7.302-11.015 9.281-5.55 2.396-10.898 2.036-15.872-1.539-2.793-2.006-4.723-4.74-6.097-7.862-1.096-2.493-1.71-5.106-1.995-7.826-.33-3.14-.055-6.208.649-9.262.037-.165.05-.335.086-.572-.229-.02-.458-.083-.673-.051-1.94.288-3.693.917-4.726 2.755-.579 1.027-.692 2.18-.792 3.327-.033.37-.02.746-.02 1.119v20.377c-.69.227-1.273.175-1.852-.227-1-.696-2.036-1.344-3.036-2.041-.405-.283-.764-.318-1.229-.143-3.907 1.466-7.957 2.409-12.065 3.078a62.316 62.316 0 0 1-7.162.732c-4.13.189-8.166-.291-12.095-1.544a28.48 28.48 0 0 1-10.268-5.82c-3.066-2.702-5.47-5.913-7.29-9.555-1.565-3.13-2.686-6.423-3.208-9.898C.44 44.292.333 43.08.18 41.873c-.025-.187-.119-.366-.18-.548v-4.072zm71.086 3.933c.864.205 14.138.3 19.692.14.225-.008.448-.065.72-.105-.035-.356-.024-.664-.1-.946-.238-.88-.474-1.762-.773-2.62-.814-2.343-2.071-4.398-4.03-5.97-2.026-1.627-4.32-2.145-6.857-1.64-2.27.455-4.022 1.713-5.417 3.502-1.698 2.176-2.58 4.726-3.272 7.355-.023.088.024.194.037.284"/><path d="M149.42 95.27c-.172-.082-.34-.18-.52-.243-2.216-.774-2.87-2.422-2.457-4.493.158-.79.7-1.396 1.424-1.771a15.8 15.8 0 0 1 1.765-.77 23.123 23.123 0 0 1 1.93-.621c2.015-.552 3.407-1.817 4.446-3.605 1.233-2.123 2.111-4.389 2.979-6.667.591-1.548 1.154-3.108 1.762-4.65.19-.48.148-.876-.063-1.343a6060.926 6060.926 0 0 1-7.94-17.697c-2.43-5.437-4.847-10.882-7.294-16.313-.444-.985-1-1.92-1.51-2.875-.223-.418-.531-.649-1.051-.647-3.63.02-7.26.012-10.892.015-.128.002-.257.043-.445.075-.027.282-.072.542-.072.8-.004 8.11-.019 16.218.009 24.327.006 2.043.61 3.936 1.853 5.591a7.03 7.03 0 0 0 3.598 2.536c1.475.46 2.8.048 3.99-.876 1.197-.929 2.067-2.131 2.845-3.413.139-.228.284-.453.434-.695.487.52.95 1.008 1.478 1.57-.402 1.107-1.05 2.205-1.787 3.255-1.224 1.747-2.7 3.225-4.64 4.168-4.326 2.101-9.813.995-12.571-3.841-.985-1.725-1.61-3.575-1.703-5.579-.056-1.216-.146-2.433-.149-3.65-.013-7.668-.007-15.335-.007-23.003V33.77c-.768-.224-13.66-.302-15.418-.11-.25.348-.135.768-.135 1.158-.008 7.125-.006 14.25-.005 21.373 0 1.053-.05 2.11.03 3.155.18 2.375.975 4.507 2.834 6.095.609.52 1.318.972 2.053 1.285 1.676.715 3.245.398 4.633-.768 1.103-.925 1.972-2.049 2.715-3.274.14-.229.274-.463.473-.799.56.491 1.031.99 1.545 1.533-1.423 3.048-3.229 5.721-6.254 7.392-3.137 1.734-8.059 1.606-11.121-1.469-1.619-1.625-2.618-3.607-3.126-5.833-.31-1.357-.435-2.735-.433-4.129.008-8.176.004-16.353.004-24.529v-1.216c-1.513-.114-2.96.007-4.463-.078V32.08c.01-.016.034-.094.087-.125 3.052-1.85 5.198-4.524 6.84-7.624.758-1.432 1.373-2.94 2.05-4.418.166-.365.316-.74.487-1.138h1.636c.003 1.155.008 2.296.01 3.439v6.901h1.213c4.106 0 8.211-.027 12.316.021.879.012 1.44-.272 1.971-.945 2.06-2.606 3.565-5.507 4.73-8.6.084-.222.164-.445.25-.666.01-.029.04-.051.115-.139.205-.015.468-.046.732-.048.262-.003.525.025.88.043v10.097c.125.115.147.141.175.16a.23.23 0 0 0 .09.038c.1.017.2.037.302.037 8.413.01 16.826.017 25.24.026.033 0 .066.014.145.03.244.526.103 1.084.091 1.609l-3.242.513c-.134.022-.27.043-.398.084-1.716.559-2.443 1.805-1.932 3.555.36 1.229.85 2.425 1.361 3.601 2.163 4.965 4.351 9.918 6.535 14.874 1.31 2.973 2.628 5.944 3.944 8.914.08.18.19.346.349.63.138-.251.246-.4.31-.565 2.52-6.604 5.05-13.205 7.548-19.818.633-1.673 1.17-3.383 1.728-5.086.286-.874.39-1.78.37-2.702-.039-1.705-.815-2.815-2.469-3.309-.866-.26-1.78-.369-2.676-.525-.293-.051-.596-.039-.945-.059v-1.63c.772-.172 14.557-.235 16.306-.076.179.51.071 1.046.081 1.627-.25.092-.49.213-.743.264-2.113.425-3.668 1.664-4.944 3.328-1.295 1.69-2.081 3.637-2.833 5.598-1.9 4.96-3.783 9.927-5.672 14.89-1.975 5.185-3.945 10.373-5.925 15.555-2.043 5.34-4.066 10.688-6.155 16.01-.866 2.205-1.878 4.354-3.341 6.252-.892 1.155-1.932 2.086-3.4 2.423-.052.012-.085.095-.128.145h-1.832zm186.878 0c-.453-.075-.906-.172-1.363-.22-3-.316-5.86-1.053-8.348-2.84-1.752-1.26-3.085-2.86-3.582-5.013-.62-2.685-.154-5.143 1.903-7.083 1.402-1.32 2.943-2.494 4.425-3.727 1.277-1.062 2.558-2.118 3.589-3.434.121-.155.233-.319.429-.59-.536-.121-.976-.229-1.419-.319-2.527-.516-4.712-1.642-6.457-3.574-.868-.96-1.418-2.088-1.52-3.362-.104-1.345.38-2.524 1.412-3.439.901-.796 1.961-1.32 3.053-1.791 1.365-.59 2.737-1.166 4.087-1.79.536-.249 1.023-.605 1.624-.968-.999-.532-1.876-.96-2.715-1.456-2.195-1.299-4.018-2.98-5.259-5.242-.807-1.47-1.255-3.034-1.485-4.703-.324-2.341-.016-4.597.743-6.786 1.36-3.92 3.977-6.801 7.606-8.763 2.289-1.236 4.745-1.888 7.347-2.127 2.64-.243 5.194.009 7.693.852 1.784.603 3.406 1.5 4.772 2.81.344.332.693.5 1.17.467 1.889-.125 3.779-.214 5.665-.358 1.584-.121 3.164-.297 4.744-.452.673-.067 1.344-.144 2.015-.217v6.515c-1.11-.11-2.221-.21-3.33-.336-1.107-.125-2.21-.301-3.319-.407-1.076-.104-2.131-.425-3.293-.435.635 1.547 1.203 2.98 1.423 4.545.447 3.161-.048 6.147-1.552 8.94-1.901 3.528-4.841 5.871-8.589 7.22a19.668 19.668 0 0 1-4.941 1.066c-1.491.134-2.97.231-4.444-.06-.791-.156-1.566-.388-2.231-.555-1.198.75-2.334 1.424-3.428 2.156-.782.526-1.586 1.059-2.247 1.721-.896.9-.82 2.1.11 2.965.387.362.86.668 1.347.875.649.275 1.342.463 2.029.63 2.281.55 4.62.668 6.946.744 4.33.144 8.672.015 12.99.478 1.307.138 2.619.332 3.893.648 4.307 1.07 7.51 5.212 7.59 9.694.041 2.309-.696 4.391-1.89 6.329-2.479 4.021-6.124 6.637-10.368 8.499-3.818 1.675-7.842 2.5-11.998 2.716-.254.012-.504.116-.755.177h-4.072zm-.786-22.54c-.112.097-.246.198-.366.314-1.218 1.175-2.444 2.344-3.648 3.534-.893.884-1.737 1.82-2.206 3.011-.794 2.009-.437 3.915.62 5.723 1.12 1.917 2.714 3.378 4.606 4.496 3.387 1.999 7.027 2.882 10.978 2.464 3.406-.36 6.54-1.439 9.309-3.442 2.828-2.045 4.972-4.587 5.418-8.228.223-1.817-.227-3.408-1.471-4.773-1.154-1.265-2.641-1.889-4.271-2.146-1.33-.211-2.685-.291-4.033-.365-1.858-.101-3.72-.144-5.58-.209-2.503-.087-5.007-.167-7.51-.259-.572-.02-1.145-.073-1.846-.12m-4.401-30.9c.087.942.159 1.885.264 2.825.273 2.452 1.002 4.767 2.28 6.874 2.02 3.328 4.89 5.169 8.916 4.901a8.269 8.269 0 0 0 4.249-1.502c2.035-1.42 3.218-3.454 3.936-5.768.635-2.046.765-4.152.672-6.298-.095-2.225-.487-4.375-1.321-6.422-1.624-3.982-4.982-6.808-9.635-6.558-3.54.19-6.194 1.831-7.844 4.961-1.143 2.169-1.502 4.542-1.517 6.987M219.042 0v35.23c.349-.208.584-.32.788-.473 2.281-1.706 4.637-3.297 7.139-4.667 2.005-1.099 4.118-1.929 6.406-2.125 2.084-.179 4.115.22 6.039 1.056 3.277 1.428 5.75 3.784 7.655 6.764a21.53 21.53 0 0 1 3.248 8.894c.877 6.8-.542 13.06-4.783 18.555-3.158 4.09-7.324 6.651-12.29 7.986-2.587.696-5.22.706-7.863.656-3.056-.056-6.047-.615-9.042-1.154-.93-.167-1.86-.346-2.787-.53-.327-.065-.647-.162-1.052-.265V68.7c0-18.688.002-37.377-.008-56.065 0-1.047-.037-2.103-.175-3.139-.222-1.666-.793-2.351-2.406-2.736-.886-.212-1.797-.313-2.697-.462-.497-.08-.995-.156-1.56-.243V4.352c.317-.133.678-.307 1.055-.44 3.278-1.175 6.56-2.338 9.837-3.516.239-.086.444-.262.664-.396h1.832zm-.005 48.517c0 3.053.019 6.105-.01 9.158-.01 1.13.129 2.234.419 3.311.884 3.288 2.721 5.838 5.955 7.129 3.989 1.594 7.849 1.134 11.455-1.139 2.74-1.726 4.475-4.297 5.615-7.276 1.09-2.846 1.494-5.805 1.469-8.854-.025-3.051-.533-5.991-1.673-8.811-1.11-2.746-2.718-5.141-5.103-6.966-1.652-1.264-3.505-2.054-5.56-2.303-2.135-.257-4.174.186-6.137 1.038-1.967.855-3.753 2.011-5.525 3.206-.661.445-.938.919-.926 1.737.051 3.257.021 6.513.021 9.77"/><path d="M246.951 32.468v-1.43c2.082-.61 4.229-1.015 6.354-1.506l6.424-1.482v29.716c0 1.617.324 3.167 1.076 4.599 1.279 2.433 3.326 3.847 5.994 4.442 2.479.551 4.775-.079 7-1.059 2.405-1.058 4.535-2.565 6.54-4.252.254-.214.407-.439.391-.775-.011-.203-.001-.408-.001-.611 0-7.463.005-14.925-.009-22.389a11.217 11.217 0 0 0-.202-2.115c-.217-1.106-.843-1.939-1.963-2.253-1.104-.31-2.227-.553-3.35-.79-.859-.182-1.729-.303-2.591-.465-.191-.036-.373-.132-.575-.208v-1.32c5.04-.829 10.055-1.653 15.189-2.495.015.502.036.896.036 1.291.001 10.991-.001 21.981.009 32.972 0 .777.06 1.557.147 2.327.144 1.257.823 1.93 2.086 1.883 1.107-.042 2.205-.287 3.307-.445.33-.047.66-.107 1.006-.163.275.567.136 1.105.142 1.746-4.35 1.4-8.71 2.804-13.215 4.252-.035-1.483-.013-2.83-.017-4.176-.004-1.316 0-2.632 0-3.967-.486-.085-.693.242-.949.416-1.652 1.125-3.257 2.322-4.94 3.397-2.515 1.607-5.107 3.085-8.022 3.86-3.46.92-6.724.517-9.65-1.648-2.264-1.674-3.578-3.945-3.903-6.745a30.704 30.704 0 0 1-.175-3.443c-.016-7.124-.007-14.247-.009-21.371 0-.441.002-.881-.017-1.323-.074-1.7-.86-2.78-2.486-3.333-.96-.327-1.943-.578-2.914-.87-.223-.067-.436-.162-.713-.267m-61.158 39.329h-1.716c-.506-3.822-.851-7.637-1.274-11.512h1.716c.16.496.33 1.035.508 1.571.95 2.867 2.582 5.247 5.231 6.756 3.176 1.811 6.491 2.041 9.795.314 1.778-.929 3.065-2.349 3.566-4.346.537-2.144.143-4.097-1.357-5.774-2.164-2.416-4.654-4.446-7.395-6.168-2.065-1.297-4.161-2.546-6.228-3.842-1.207-.758-2.338-1.615-3.337-2.649-1.631-1.687-2.431-3.679-2.505-6.03-.105-3.441 1.085-6.306 3.651-8.57 1.731-1.529 3.78-2.489 6.029-3.009 1.885-.437 3.8-.687 5.736-.595 2.913.138 5.766.617 8.59 1.704 0 .805-.016 1.614.004 2.421.052 2.1.121 4.197.181 6.295.006.197.001.394.001.654h-1.74c-.452-1.224-.773-2.445-1.333-3.545-1.584-3.11-4.182-4.839-7.657-5.106-2.062-.159-3.967.461-5.572 1.791-2.194 1.816-2.619 4.759-1.101 7.248a9.717 9.717 0 0 0 2.78 2.936 117.202 117.202 0 0 0 5.725 3.679c2.257 1.372 4.576 2.646 6.667 4.275 1.808 1.407 3.429 2.991 4.414 5.101 1.641 3.511 1.467 6.967-.55 10.271-1.888 3.091-4.766 4.879-8.206 5.721-3.203.787-6.437.78-9.633-.168-.516-.154-1.049-.257-1.566-.413-1.353-.407-2.555-.297-3.424.99m108.397-1.185v-1.694c.844-.161 1.64-.287 2.426-.469 1.967-.453 3.172-1.693 3.703-3.63a10.83 10.83 0 0 0 .403-2.903c-.008-8.175-.005-16.348-.005-24.522v-.886c-2.191-.837-4.358-1.665-6.536-2.499v-1.793c.91-.344 1.85-.703 2.795-1.054 2.47-.92 4.952-1.815 7.412-2.765.955-.369 1.904-.314 2.981-.255v10.892l.179.064c.139-.156.305-.295.41-.47 1.176-1.94 2.324-3.897 3.521-5.824.5-.8 1.093-1.548 1.667-2.302 1.35-1.779 3.652-2.376 5.742-1.655l6.758 2.334-2.308 6.072c-.369-.037-.736-.039-1.086-.116a19.428 19.428 0 0 1-4.293-1.518c-.695-.337-1.433-.598-2.17-.842-1.69-.559-3.113-.005-4.187 1.285-1.585 1.905-2.869 4.026-4.01 6.225a2.192 2.192 0 0 0-.219.971 3346.51 3346.51 0 0 0 .011 20.35c.003.764.184 1.541.378 2.286.304 1.164 1.099 1.924 2.212 2.34 1.089.407 2.225.57 3.382.575 1.42.007 2.838.002 4.315.002v1.8h-23.482zm-90.24 22.274c-1.96-.013-3.77-.47-5.35-1.65-1.613-1.206-2.447-2.827-2.562-4.848-.256-4.497 3.15-7.117 6.514-7.612 1.54-.226 3.04-.197 4.514.247 3.332 1.001 5.272 3.601 4.987 7.086-.282 3.432-2.59 5.764-5.797 6.47-.754.166-1.536.209-2.305.307m4.946-6.415c.039-1.748-.314-3.278-1.16-4.672-.954-1.57-2.379-2.449-4.206-2.324-2.153.146-3.495 1.406-4.105 3.483-.363 1.231-.339 2.467-.139 3.702.266 1.636.864 3.116 2.169 4.238 2.165 1.858 5.607 1.4 6.842-1.499.418-.978.658-1.985.6-2.928m81.494-3.486c-.396.118-.663.057-.805-.298-.05-.126-.1-.251-.153-.376-1.132-2.643-4.172-3.346-6.42-2.278-1.084.515-1.904 1.285-2.408 2.374-1.172 2.539-.982 4.985.536 7.33 1.248 1.924 4.105 2.799 6.39 1.534.13-1.111.158-2.28-.016-3.454-.061-.417-.309-.676-.717-.751-.562-.103-1.127-.179-1.77-.278l-.03-.65c1.18-.046 2.323-.018 3.465-.022 1.152-.005 2.305-.001 3.518-.001l.08.64c-.116.057-.172.101-.233.113-1.044.19-1.313.49-1.335 1.543-.015.711-.003 1.424-.003 2.136v.919c-1.322.681-2.692 1.061-4.091 1.245-2.141.281-4.256.159-6.228-.884-1.903-1.006-2.988-2.575-3.311-4.696-.137-.906-.221-1.79-.034-2.715.598-2.968 2.507-4.64 5.304-5.379 1.829-.481 3.693-.377 5.525.086.885.224 1.756.512 2.646.07.229.73.267 2.51.09 3.792m-28.844 3.313c0 1.541-.016 2.929.008 4.314.01.598.215.801.803.81 1.355.021 2.712.021 4.067-.003.813-.014 1.416-.407 1.762-1.159.154-.335.293-.676.438-1.01h.675l-.273 3.284h-12.892l-.058-.654c.329-.025.623-.038.914-.07 1.141-.116 1.61-.772 1.599-1.705-.035-2.812-.008-5.626-.015-8.44-.003-1.41-.248-1.672-1.68-1.877-.095-.014-.19-.045-.302-.074-.027-.101-.068-.192-.073-.287-.005-.097.026-.193.05-.343h11.853l.15 2.893c-.393.197-.622.037-.776-.337-.611-1.477-.614-1.476-2.191-1.477-1.05 0-2.101-.003-3.151.001-.264.001-.528.025-.85.041v4.815c.412.21.858.103 1.285.112.745.016 1.49.013 2.236.002 1.094-.015 1.305-.187 1.627-1.265.02-.06.077-.107.133-.182h.465c.205.728.24 2.74.069 3.997l-.545.059c-.06-.125-.133-.211-.14-.303-.048-.766-.578-1.092-1.217-1.123-1.276-.063-2.558-.019-3.97-.019m47.419-2.613h.576v4.022l-.563.025c-.417-1.254-.675-1.439-2.002-1.445-1.08-.005-2.16-.001-3.253-.001-.073.281-.163.472-.166.665-.014 1.119-.032 2.24 0 3.357.026.907.27 1.113 1.185 1.12 1.086.01 2.171.007 3.258.002 1.51-.008 1.97-.337 2.478-1.754l.153-.416.734-.065c-.225 1.143.02 2.268-.365 3.346h-12.89v-.646c.468-.064.936-.092 1.386-.195.775-.182 1.089-.557 1.172-1.327.022-.2.008-.406.008-.61v-7.938c0-.17.007-.342-.005-.51-.064-.875-.41-1.29-1.259-1.487-.225-.052-.46-.063-.735-.098v-.647h11.786c.07.957.138 1.887.209 2.887-.279.03-.464.052-.686.078-.059-.226-.104-.418-.159-.607-.309-1.048-.576-1.266-1.651-1.274-1.391-.012-2.783-.001-4.173.004-.098 0-.197.037-.291.056-.219.765-.231 3.958-.005 4.885 1.331 0 2.683.014 4.033-.006.44-.006.755-.271.928-.684.103-.246.199-.495.297-.737m-121.116-4.251v3.596h-.54c-.37-.605-.66-1.23-1.087-1.743-1.641-1.975-4.865-2.092-6.83-.258-1.591 1.482-2.08 3.386-1.823 5.466.2 1.617.87 3.076 2.165 4.137 2.448 2.008 5.835 1.525 7.507-1.128.254-.402.435-.883 1.063-.71.03.008.05.042.12.103-.178 1.24-.573 2.44-1.12 3.667-1.232-.322-2.405.052-3.604.183-3.015.328-5.743-.295-7.81-2.707-.83-.968-1.314-2.104-1.449-3.401-.429-4.147 2.405-6.708 5.649-7.58a9.511 9.511 0 0 1 5.216.06c.423.125.825.343 1.253.405.377.055.777-.048 1.29-.09m61.462 13.108h-11.51l-.03-.633c.227-.046.42-.08.612-.126 1.193-.285 1.45-.599 1.462-1.811.009-1.084.003-2.169.003-3.254 0-1.661.005-3.322-.003-4.982-.005-1.409-.336-1.77-1.751-1.952-.064-.008-.125-.042-.259-.087l-.059-.665c2.402-.006 4.762-.001 7.094-.004.071.084.145.129.15.181.016.16.005.323.005.5-.449.072-.845.122-1.235.202-.616.126-.904.551-.965 1.148-.019.17-.012.34-.012.508 0 2.849-.004 5.695.002 8.542.001 1.123.19 1.31 1.289 1.32.847.007 1.695-.013 2.542.005.882.02 1.573-.35 2.134-.992a17.01 17.01 0 0 0 1.011-1.271c.258-.363.545-.474 1.024-.228-.501 1.203-1.004 2.405-1.504 3.599m-17.105-3.675l-1.53 3.668h-11.544v-.62c.37-.085.757-.174 1.144-.265.477-.115.768-.419.855-.896.06-.332.115-.669.115-1.003.01-2.644.006-5.286.005-7.929 0-.202.006-.408-.025-.607-.138-.905-.543-1.295-1.457-1.416-.196-.025-.395-.027-.655-.043l-.03-.667h7.22v.662c-.236.018-.432.025-.626.046-1.054.117-1.506.595-1.552 1.635-.008.137-.003.272-.003.407v8.132c0 .169-.01.339.005.508.055.637.315.926.956.941 1.084.027 2.17.03 3.253-.005.631-.02 1.176-.309 1.599-.784.403-.455.802-.916 1.166-1.404.281-.377.604-.51 1.104-.36"/></g></svg>